<svg xmlns="http://www.w3.org/2000/svg" width="65.491" height="60.553" viewBox="0 0 65.491 60.553">
  <g id="Group_1" data-name="Group 1" transform="translate(-87.502 -324.797)">
    <g id="cardmax-logo" transform="translate(87.502 324.797)">
      <path id="Path_12" data-name="Path 12" d="M145.106,24.94V3.146H108.033V24.94H105V2.472A2.472,2.472,0,0,1,107.472,0h38.277a2.472,2.472,0,0,1,2.472,2.472V24.94ZM108.033,36.4v21.12h37.073V36.4h3.113V58.081a2.472,2.472,0,0,1-2.472,2.472H107.472A2.472,2.472,0,0,1,105,58.081V36.4Z" transform="translate(-93.949)" fill="#ee1d25" fill-rule="evenodd"/>
      <path id="CARDMAX" d="M14.776,238.516v-1.771H8.307a1.676,1.676,0,0,0-1.68,1.68v4.812a1.676,1.676,0,0,0,1.68,1.68h6.469v-1.77H8.386v-4.631Zm2.882-1.771a1.676,1.676,0,0,0-1.68,1.68v6.492h1.759v-2.633h4.631v2.633h1.782v-6.492a1.685,1.685,0,0,0-1.691-1.68h-4.8Zm.08,3.768v-2h4.631v2ZM33.6,238.436a1.693,1.693,0,0,0-1.691-1.68H25.431v8.16H27.19V242.3a.055.055,0,0,0,.034.011c0-.046-.011-.068-.034-.068l2.338-.011,2.258,2.69H33.6v-.6c-.568-.681-1.192-1.407-1.771-2.088h.08a1.693,1.693,0,0,0,1.691-1.68v-2.111Zm-6.413.079h4.631v1.941H27.19v-1.94Zm7.637-1.771v8.172h6.481A1.685,1.685,0,0,0,43,243.237v-4.812a1.685,1.685,0,0,0-1.691-1.68H34.827Zm1.759,1.771h4.631v4.631H36.586v-4.63Zm12.041,1.532-2.769-3.3H44.042v8.172H45.8v-5.47l2.826,3.348c.908-1.067,1.9-2.269,2.815-3.359v5.482h1.77v-8.172H51.385Zm7.648-3.3a1.676,1.676,0,0,0-1.68,1.68v6.492h1.759v-2.633h4.631v2.633h1.782v-6.492a1.686,1.686,0,0,0-1.691-1.68h-4.8Zm.08,3.768v-2h4.631v2H56.355Zm13.936-3.768c-.7.863-1.634,1.918-2.247,2.69l-2.269-2.69H63.947v.6c.965,1.135,1.964,2.338,2.917,3.484l-2.917,3.484v.6h1.827c.692-.851,1.623-1.918,2.247-2.678l2.269,2.678h1.827V244.3l-2.928-3.473,2.929-3.484v-.6Z" transform="translate(-6.627 -210.148)" fill="#231f20" fill-rule="evenodd"/>
    </g>
  </g>
</svg>
