<svg xmlns="http://www.w3.org/2000/svg" width="42.443" height="49.53" viewBox="0 0 42.443 49.53">
  <g id="Page-1" transform="translate(-4.746 -2.85)">
    <g id="icon-22-one-finger" transform="translate(4.876 3)">
      <path id="one-finger" d="M31.538,50.406A13.949,13.949,0,0,0,45.215,36.731h0V25.794a2.735,2.735,0,1,0-5.47,0V26.7H37.922V22.157a2.735,2.735,0,1,0-5.47,0V24.88H30.629V20.333a2.735,2.735,0,1,0-5.47,0V26.7H23.336V7.568a2.735,2.735,0,1,0-5.47,0V28.162c-3.753-4.012-8.694-8.425-10.719-6.389-1.982,1.993,3.126,7.485,10.259,19.486,3.214,5.408,7.28,9.147,14.133,9.147Zm15.5-13.675a15.5,15.5,0,0,1-15.5,15.5c-5.676,0-11.666-2.648-15.788-10.159C9.8,31.229,2.192,24.12,5.816,20.5c2.592-2.592,6.662-.105,10.227,3.229h0V7.574a4.558,4.558,0,1,1,9.117,0v9.1a4.567,4.567,0,0,1,7.012,2.06,4.554,4.554,0,0,1,7.574,3.409v.025a4.564,4.564,0,0,1,7.293,3.653V36.731Z" transform="translate(-4.876 -3)" fill="#e50019" stroke="#e50019" stroke-width="0.3" fill-rule="evenodd"/>
    </g>
  </g>
</svg>
