<svg xmlns="http://www.w3.org/2000/svg" width="73.677" height="68.121" viewBox="0 0 73.677 68.121">
  <g id="cardmax-logo" transform="translate(-6.627)">
    <path id="Path_12" data-name="Path 12" d="M150.119,28.057V3.539H108.412V28.057H105V2.78A2.78,2.78,0,0,1,107.78,0h43.061a2.78,2.78,0,0,1,2.78,2.78V28.057ZM108.412,40.949v23.76h41.707V40.949h3.5V65.341a2.78,2.78,0,0,1-2.78,2.78H107.78a2.78,2.78,0,0,1-2.78-2.78V40.949Z" transform="translate(-85.94)" fill="#fff" fill-rule="evenodd"/>
    <path id="CARDMAX" d="M15.795,238.737v-1.992H8.517a1.885,1.885,0,0,0-1.89,1.89v5.414a1.885,1.885,0,0,0,1.89,1.89h7.278v-1.992H8.606v-5.209Zm3.242-1.992a1.886,1.886,0,0,0-1.89,1.89v7.3h1.979v-2.962h5.209v2.962h2v-7.3a1.9,1.9,0,0,0-1.9-1.89h-5.4Zm.089,4.239v-2.247h5.209v2.247Zm17.849-2.337a1.9,1.9,0,0,0-1.9-1.89H27.781v9.18H29.76v-2.949A.062.062,0,0,0,29.8,243c0-.051-.013-.077-.038-.077l2.63-.013,2.54,3.026h2.043v-.677c-.638-.766-1.341-1.583-1.992-2.349h.089a1.9,1.9,0,0,0,1.9-1.89v-2.375Zm-7.214.089H34.97v2.183H29.76v-2.183Zm8.592-1.992v9.193h7.291a1.9,1.9,0,0,0,1.9-1.89v-5.413a1.9,1.9,0,0,0-1.9-1.89H38.352Zm1.979,1.992h5.209v5.209H40.331v-5.209Zm13.546,1.724-3.115-3.716H48.719v9.193H50.7v-6.154l3.179,3.766c1.021-1.2,2.132-2.553,3.167-3.779v6.168h1.992v-9.194H56.979Zm8.6-3.716a1.885,1.885,0,0,0-1.89,1.89v7.3h1.979v-2.962H67.78v2.962h2v-7.3a1.9,1.9,0,0,0-1.9-1.89h-5.4Zm.089,4.239v-2.247H67.78v2.247H62.571Zm15.678-4.239c-.792.971-1.838,2.158-2.528,3.026l-2.553-3.026H71.111v.677c1.085,1.276,2.209,2.63,3.281,3.92l-3.281,3.92v.677h2.056c.779-.957,1.826-2.158,2.528-3.013l2.553,3.013H80.3v-.689l-3.294-3.907,3.3-3.92v-.677Z" transform="translate(0 -206.824)" fill="#fff" fill-rule="evenodd"/>
  </g>
</svg>
