<svg xmlns="http://www.w3.org/2000/svg" width="55.261" height="38.983" viewBox="0 0 55.261 38.983">
  <g id="coupon" transform="translate(0.5 0.5)">
    <path id="Path_92" data-name="Path 92" d="M53.548,18.565a6.1,6.1,0,0,1,1.109.113,1.376,1.376,0,0,0,1.115-.291,1.354,1.354,0,0,0,.489-1.042V11.783A6.791,6.791,0,0,0,49.479,5H8.783A6.791,6.791,0,0,0,2,11.783v5.562a1.357,1.357,0,0,0,1.6,1.334,6.1,6.1,0,0,1,1.109-.113,5.426,5.426,0,0,1,0,10.852A6.1,6.1,0,0,1,3.6,29.305a1.376,1.376,0,0,0-1.115.291A1.354,1.354,0,0,0,2,30.638V36.2a6.791,6.791,0,0,0,6.783,6.783h40.7A6.791,6.791,0,0,0,56.261,36.2V30.638a1.354,1.354,0,0,0-.488-1.043,1.379,1.379,0,0,0-1.115-.291,6.1,6.1,0,0,1-1.109.113,5.426,5.426,0,0,1,0-10.852Zm0,13.565V36.2a4.074,4.074,0,0,1-4.07,4.07H8.783a4.074,4.074,0,0,1-4.07-4.07v-4.07a8.139,8.139,0,0,0,0-16.278v-4.07a4.074,4.074,0,0,1,4.07-4.07h40.7a4.074,4.074,0,0,1,4.07,4.07v4.07a8.139,8.139,0,0,0,0,16.278Z" transform="translate(-2 -5)" fill="#e50019" stroke="#fff" stroke-width="1"/>
    <path id="Path_93" data-name="Path 93" d="M14.213,9.857V12.57a1.357,1.357,0,0,1-2.713,0V9.857a1.357,1.357,0,0,1,2.713,0Z" transform="translate(14.274 0.996)" fill="#e50019"/>
    <path id="Path_94" data-name="Path 94" d="M14.213,14.857V17.57a1.357,1.357,0,1,1-2.713,0V14.857a1.357,1.357,0,1,1,2.713,0Z" transform="translate(14.274 9.561)" fill="#e50019"/>
  </g>
</svg>
