<svg id="_1904659_arrow_backup_down_download_save_icon" data-name="1904659_arrow_backup_down_download_save_icon" xmlns="http://www.w3.org/2000/svg" width="44.377" height="44.377" viewBox="0 0 44.377 44.377">
  <path id="Path_90" data-name="Path 90" d="M43.906,32.284h0a1.04,1.04,0,0,0,.153.125l.083.045a.6.6,0,0,0,.2.083l.087.024h0a1.04,1.04,0,0,0,.4,0l.09-.028.1-.031a1.04,1.04,0,0,0,.1-.055l.073-.042a1.04,1.04,0,0,0,.159-.132l9.33-9.319a1.04,1.04,0,1,0-1.46-1.46l-7.554,7.544v-28a1.04,1.04,0,0,0-2.08,0v28l-7.554-7.544a1.04,1.04,0,0,0-1.46,1.46Z" transform="translate(-22.453)" fill="#e50019"/>
  <path id="Path_91" data-name="Path 91" d="M43.337,88a1.04,1.04,0,0,0-1.04,1.04v7.627a3.12,3.12,0,0,1-3.12,3.12H5.2a3.12,3.12,0,0,1-3.12-3.12V89.04a1.04,1.04,0,0,0-2.08,0v7.627a5.2,5.2,0,0,0,5.2,5.2H39.176a5.2,5.2,0,0,0,5.2-5.2V89.04A1.04,1.04,0,0,0,43.337,88Z" transform="translate(0 -57.491)" fill="#e50019"/>
</svg>
