<svg xmlns="http://www.w3.org/2000/svg" width="46.049" height="46.049" viewBox="0 0 46.049 46.049">
  <path id="_1303886_accept_check_circle_complete_correct_icon" data-name="1303886_accept_check_circle_complete_correct_icon" d="M19.622,30.82a1.152,1.152,0,0,1-.749-.277L12.787,24.17a1.151,1.151,0,1,1,1.5-1.748l5.168,5.587L33.042,15.96a1.151,1.151,0,1,1,1.817,1.414l-14.33,13a1.15,1.15,0,0,1-.793.439C19.7,30.818,19.66,30.82,19.622,30.82Zm26.427-7.8A23.024,23.024,0,1,0,23.024,46.049,23.05,23.05,0,0,0,46.049,23.024Zm-2.3,0A20.722,20.722,0,1,1,23.024,2.3,20.746,20.746,0,0,1,43.746,23.024Z" fill="#e50019"/>
</svg>
